<svg width="120" height="120" viewBox="0 0 120 120" xmlns="http://www.w3.org/2000/svg">
  <defs>
    <linearGradient id="chipGrad" x1="0%" y1="0%" x2="100%" y2="100%">
      <stop offset="0%" style="stop-color:#14B8A6;stop-opacity:1" />
      <stop offset="100%" style="stop-color:#22D3EE;stop-opacity:1" />
    </linearGradient>
  </defs>

  <!-- Main chip body -->
  <g transform="translate(60, 60)">
    <!-- Outer casing with rounded corners -->
    <rect x="-35" y="-35" width="70" height="70" rx="6" fill="url(#chipGrad)" opacity="0.9"/>

    <!-- Inner core -->
    <rect x="-25" y="-25" width="50" height="50" rx="4" fill="#ffffff" opacity="0.3"/>
    <rect x="-18" y="-18" width="36" height="36" rx="3" fill="url(#chipGrad)" opacity="0.8">
      <animate attributeName="opacity" values="0.8;1;0.8" dur="2s" repeatCount="indefinite"/>
    </rect>

    <!-- Circuit pattern -->
    <g opacity="0.5">
      <line x1="-15" y1="-10" x2="-10" y2="-10" stroke="#ffffff" stroke-width="1.5"/>
      <line x1="-10" y1="-10" x2="-10" y2="10" stroke="#ffffff" stroke-width="1.5"/>
      <line x1="-10" y1="10" x2="-15" y2="10" stroke="#ffffff" stroke-width="1.5"/>

      <line x1="15" y1="-10" x2="10" y2="-10" stroke="#ffffff" stroke-width="1.5"/>
      <line x1="10" y1="-10" x2="10" y2="10" stroke="#ffffff" stroke-width="1.5"/>
      <line x1="10" y1="10" x2="15" y2="10" stroke="#ffffff" stroke-width="1.5"/>

      <line x1="-10" y1="-15" x2="-10" y2="-10" stroke="#ffffff" stroke-width="1.5"/>
      <line x1="-10" y1="-10" x2="10" y2="-10" stroke="#ffffff" stroke-width="1.5"/>
      <line x1="10" y1="-10" x2="10" y2="-15" stroke="#ffffff" stroke-width="1.5"/>

      <line x1="-10" y1="15" x2="-10" y2="10" stroke="#ffffff" stroke-width="1.5"/>
      <line x1="-10" y1="10" x2="10" y2="10" stroke="#ffffff" stroke-width="1.5"/>
      <line x1="10" y1="10" x2="10" y2="15" stroke="#ffffff" stroke-width="1.5"/>
    </g>

    <!-- Center dots -->
    <circle cx="-8" cy="-8" r="2" fill="#ffffff" opacity="0.8">
      <animate attributeName="opacity" values="0.8;1;0.8" dur="1.5s" repeatCount="indefinite"/>
    </circle>
    <circle cx="8" cy="-8" r="2" fill="#ffffff" opacity="0.8">
      <animate attributeName="opacity" values="0.8;1;0.8" dur="1.5s" begin="0.3s" repeatCount="indefinite"/>
    </circle>
    <circle cx="-8" cy="8" r="2" fill="#ffffff" opacity="0.8">
      <animate attributeName="opacity" values="0.8;1;0.8" dur="1.5s" begin="0.6s" repeatCount="indefinite"/>
    </circle>
    <circle cx="8" cy="8" r="2" fill="#ffffff" opacity="0.8">
      <animate attributeName="opacity" values="0.8;1;0.8" dur="1.5s" begin="0.9s" repeatCount="indefinite"/>
    </circle>

    <!-- Chip pins -->
    <g fill="#5DBEBD">
      <!-- Top pins -->
      <rect x="-30" y="-42" width="6" height="7" rx="1"/>
      <rect x="-15" y="-42" width="6" height="7" rx="1"/>
      <rect x="0" y="-42" width="6" height="7" rx="1"/>
      <rect x="15" y="-42" width="6" height="7" rx="1"/>
      <rect x="24" y="-42" width="6" height="7" rx="1"/>

      <!-- Bottom pins -->
      <rect x="-30" y="35" width="6" height="7" rx="1"/>
      <rect x="-15" y="35" width="6" height="7" rx="1"/>
      <rect x="0" y="35" width="6" height="7" rx="1"/>
      <rect x="15" y="35" width="6" height="7" rx="1"/>
      <rect x="24" y="35" width="6" height="7" rx="1"/>

      <!-- Left pins -->
      <rect x="-42" y="-30" width="7" height="6" rx="1"/>
      <rect x="-42" y="-15" width="7" height="6" rx="1"/>
      <rect x="-42" y="0" width="7" height="6" rx="1"/>
      <rect x="-42" y="15" width="7" height="6" rx="1"/>
      <rect x="-42" y="24" width="7" height="6" rx="1"/>

      <!-- Right pins -->
      <rect x="35" y="-30" width="7" height="6" rx="1"/>
      <rect x="35" y="-15" width="7" height="6" rx="1"/>
      <rect x="35" y="0" width="7" height="6" rx="1"/>
      <rect x="35" y="15" width="7" height="6" rx="1"/>
      <rect x="35" y="24" width="7" height="6" rx="1"/>
    </g>

    <!-- Pulse effect -->
    <rect x="-35" y="-35" width="70" height="70" rx="6" fill="none" stroke="url(#chipGrad)" stroke-width="2" opacity="0">
      <animate attributeName="stroke-width" values="2;0;2" dur="2s" repeatCount="indefinite"/>
      <animate attributeName="opacity" values="0;0.8;0" dur="2s" repeatCount="indefinite"/>
      <animate attributeName="x" values="-35;-38;-35" dur="2s" repeatCount="indefinite"/>
      <animate attributeName="y" values="-35;-38;-35" dur="2s" repeatCount="indefinite"/>
      <animate attributeName="width" values="70;76;70" dur="2s" repeatCount="indefinite"/>
      <animate attributeName="height" values="70;76;70" dur="2s" repeatCount="indefinite"/>
    </rect>
  </g>
</svg>
